# File created by Blade
# Date/Time:  Wed Jan 21 16:27:48 2015
#---------------------------------------------------------
:version 1.10
:name HOM
:units
  mass 1.0
  length 1.000000
  angle deg
:documentation
     Acclaim Skeleton File
:root
   axis xyz
   order TX TY TZ RX RY RZ
   position 0.000000 0.000000 0.000000
   orientation 0 0 0
:bonedata
   begin
      id 1
      name Spine_dum
      direction 0.000000 1.000000 0.000000
      length 7.067664
      axis 0.0 0.0 0.0 xyz
   end
   begin
      id 2
      name LeftUpLeg_dum
      direction 1.000000 0.000000 0.000000
      length 4.013002
      axis 0.0 0.0 0.0 xyz
   end
   begin
      id 3
      name RightUpLeg_dum
      direction -1.000000 0.000000 0.000000
      length 4.013002
      axis 0.0 0.0 0.0 xyz
   end
   begin
      id 4
      name Spine
      direction 0.000000 1.000000 0.000000
      length 0.000000
      axis 0.0 0.0 0.0 xyz
      dof rx ry rz
   end
   begin
      id 5
      name Spine_dum1
      direction 0.000000 1.000000 0.000000
      length 15.039886
      axis 0.0 0.0 0.0 xyz
   end
   begin
      id 6
      name Spine_dum2
      direction 0.000000 1.000000 0.000000
      length 10.530368
      axis 0.0 0.0 0.0 xyz
   end
   begin
      id 7
      name Spine_dum3
      direction 0.000000 1.000000 0.000000
      length 10.530368
      axis 0.0 0.0 0.0 xyz
   end
   begin
      id 8
      name Head
      direction 0.000000 1.000000 0.000000
      length 4.527550
      axis 0.0 0.0 0.0 xyz
      dof rx ry rz
   end
   begin
      id 9
      name LeftShoulder
      direction 1.000000 0.000000 0.000000
      length 7.028855
      axis 0.0 0.0 -90.0 xyz
      dof rx ry rz
   end
   begin
      id 10
      name LeftArm
      direction 1.000000 0.000000 0.000000
      length 10.797705
      axis 0.0 0.0 -90.0 xyz
      dof rx ry rz
   end
   begin
      id 11
      name LeftForeArm
      direction 1.000000 0.000000 0.000000
      length 7.907442
      axis 0.0 0.0 -90.0 xyz
      dof ry rz rx
   end
   begin
      id 12
      name LeftHand
      direction 0.000000 0.000000 0.000000
      length 0.000000
      axis 0.0 0.0 -90.0 xyz
      dof rx ry rz
   end
   begin
      id 13
      name LeftHand_dum1
      direction 0.000000 0.000000 0.000000
      length 0.000000
      axis 0.0 0.0 -90.0 xyz
   end
   begin
      id 14
      name LeftHand_dum2
      direction 1.000000 0.000000 0.000000
      length 3.937000
      axis 0.0 0.0 -90.0 xyz
   end
   begin
      id 15
      name LeftHandThumb1
      direction 0.000000 0.000000 1.000000
      length 3.937000
      axis 0.0 0.0 -90.0 xyz
      dof rx rz ry
   end
   begin
      id 16
      name RightShoulder
      direction -1.000000 0.000000 0.000000
      length 7.028855
      axis 0.0 0.0 90.0 xyz
      dof rx ry rz
   end
   begin
      id 17
      name RightArm
      direction -1.000000 0.000000 0.000000
      length 10.797705
      axis 0.0 0.0 90.0 xyz
      dof rx ry rz
   end
   begin
      id 18
      name RightForeArm
      direction -1.000000 0.000000 0.000000
      length 7.907442
      axis 0.0 0.0 90.0 xyz
      dof ry rz rx
   end
   begin
      id 19
      name RightHand
      direction 0.000000 0.000000 0.000000
      length 0.000000
      axis 0.0 0.0 90.0 xyz
      dof rx ry rz
   end
   begin
      id 20
      name RightHand_dum1
      direction 0.000000 0.000000 0.000000
      length 0.000000
      axis 0.0 0.0 90.0 xyz
   end
   begin
      id 21
      name RightHand_dum2
      direction -1.000000 0.000000 0.000000
      length 3.937000
      axis 0.0 0.0 90.0 xyz
   end
   begin
      id 22
      name RightHandThumb1
      direction 0.000000 0.000000 1.000000
      length 3.937000
      axis 0.0 0.0 90.0 xyz
      dof rx rz ry
   end
   begin
      id 23
      name LeftUpLeg
      direction 0.000000 -1.000000 0.000000
      length 16.899758
      axis 0.0 0.0 0.0 xyz
      dof rx ry rz
   end
   begin
      id 24
      name LeftLeg
      direction 0.000000 -1.000000 0.000000
      length 17.389183
      axis 0.0 0.0 0.0 xyz
      dof rx ry rz
   end
   begin
      id 25
      name LeftFoot
      direction 0.000000 -0.258819 0.965926
      length 4.924528
      axis 15.0 0.0 0.0 xyz
      dof rx ry rz
   end
   begin
      id 26
      name LeftToeBase
      direction 0.000000 0.000000 1.000000
      length 2.952750
      axis 0.0 0.0 0.0 xyz
      dof rx ry rz
   end
   begin
      id 27
      name RightUpLeg
      direction 0.000000 -1.000000 0.000000
      length 16.899758
      axis 0.0 0.0 0.0 xyz
      dof rx ry rz
   end
   begin
      id 28
      name RightLeg
      direction 0.000000 -1.000000 0.000000
      length 17.389183
      axis 0.0 0.0 0.0 xyz
      dof rx ry rz
   end
   begin
      id 29
      name RightFoot
      direction 0.000000 -0.258819 0.965926
      length 4.924528
      axis 15.0 0.0 0.0 xyz
      dof rx ry rz
   end
   begin
      id 30
      name RightToeBase
      direction 0.000000 0.000000 1.000000
      length 2.952750
      axis 0.0 0.0 0.0 xyz
      dof rx ry rz
   end
:hierarchy
   begin
      root Spine_dum LeftUpLeg_dum RightUpLeg_dum
      Spine_dum Spine
      LeftUpLeg_dum LeftUpLeg
      RightUpLeg_dum RightUpLeg
      Spine Spine_dum1 Spine_dum2 Spine_dum3
      Spine_dum1 Head
      Spine_dum2 LeftShoulder
      Spine_dum3 RightShoulder
      LeftShoulder LeftArm
      LeftArm LeftForeArm
      LeftForeArm LeftHand
      LeftHand LeftHand_dum1 LeftHand_dum2
      LeftHand_dum1 LeftHandThumb1
      RightShoulder RightArm
      RightArm RightForeArm
      RightForeArm RightHand
      RightHand RightHand_dum1 RightHand_dum2
      RightHand_dum1 RightHandThumb1
      LeftUpLeg LeftLeg
      LeftLeg LeftFoot
      LeftFoot LeftToeBase
      RightUpLeg RightLeg
      RightLeg RightFoot
      RightFoot RightToeBase
   end

# File created by Blade
# Date/Time:  Wed Jan 21 16:27:40 2015
# Frame Rate: 120.000 fps
#------------------------------------------------------
:FULLY-SPECIFIED
:DEGREES
66
root 19.953646 35.332556 -24.401189 -176.016056 -5.312223 -178.699477
Spine -13.571439 0.544578 0.355557
Head 8.985847 -3.812868 -0.996191
LeftShoulder -13.379982 -32.794710 21.852289
LeftArm 3.620802 -1.077578 -5.194820
LeftForeArm 6.701986 0.000000 -2.565997
LeftHand -8.070863 -0.000000 -8.331260
LeftHandThumb1 -26.253704 0.000000 33.147579
RightShoulder -13.624464 -6.561966 -12.177870
RightArm 2.003376 42.132155 6.405894
RightForeArm -36.407319 0.000000 5.764825
RightHand -8.412365 -0.000000 10.488395
RightHandThumb1 -24.326973 -0.000000 -32.862282
LeftUpLeg 6.403783 6.134843 2.559265
LeftLeg -6.040331 -0.000000 0.000000
LeftFoot -22.311331 27.926337 -11.953781
LeftToeBase 26.077823 -0.000000 -0.000000
RightUpLeg 5.745366 -6.910873 0.784217
RightLeg -3.006901 -0.000000 0.000000
RightFoot -23.823786 -25.082677 16.334674
RightToeBase 22.569078 -0.000000 -0.000000
67
root 19.951990 35.333132 -24.399223 -176.026126 -5.319275 -178.705020
Spine -13.556560 0.540444 0.340963
Head 9.020007 -3.833289 -1.006057
LeftShoulder -13.383307 -32.788003 21.835385
LeftArm 3.637581 -1.018933 -5.187657
LeftForeArm 6.685417 -0.000000 -2.556270
LeftHand -8.063978 -0.000000 -8.269063
LeftHandThumb1 -26.253704 0.000000 33.147579
RightShoulder -13.630364 -6.568312 -12.161734
RightArm 2.029632 42.110797 6.404239
RightForeArm -36.402127 -0.000000 5.752112
RightHand -8.418235 -0.000000 10.463117
RightHandThumb1 -24.326973 -0.000000 -32.862282
LeftUpLeg 6.403584 6.111896 2.549986
LeftLeg -6.027383 -0.000000 0.000000
LeftFoot -22.307532 27.944174 -11.936023
LeftToeBase 26.087642 -0.000000 -0.000000
RightUpLeg 5.758691 -6.911286 0.773719
RightLeg -3.016341 -0.000000 0.000000
RightFoot -23.820022 -25.087393 16.335741
RightToeBase 22.630505 -0.000000 -0.000000
68
root 19.950365 35.333828 -24.396394 -176.029486 -5.305431 -178.704262
Spine -13.552131 0.557645 0.335056
Head 9.069266 -3.836583 -1.011443
LeftShoulder -13.387436 -32.765193 21.811319
LeftArm 3.657170 -0.997338 -5.184193
LeftForeArm 6.679542 -0.000000 -2.541871
LeftHand -8.039380 -0.000000 -8.232709
LeftHandThumb1 -26.253704 0.000000 33.147579
RightShoulder -13.654150 -6.692100 -12.148632
RightArm 2.118142 42.250021 6.494476
RightForeArm -36.387060 0.000000 5.775797
RightHand -8.470833 -0.000000 10.388161
RightHandThumb1 -24.326973 -0.000000 -32.862282
LeftUpLeg 6.397903 6.125091 2.546024
LeftLeg -6.014391 -0.000000 0.000000
LeftFoot -22.311057 27.949278 -11.946214
LeftToeBase 26.062157 -0.000000 -0.000000
RightUpLeg 5.751840 -6.876795 0.770893
RightLeg -3.008386 -0.000000 0.000000
RightFoot -23.815965 -25.094455 16.339044
RightToeBase 22.611953 -0.000000 -0.000000
69
root 19.948832 35.333892 -24.394275 -176.033498 -5.305862 -178.705046
Spine -13.550703 0.558956 0.324857
Head 9.134233 -3.834513 -1.011362
LeftShoulder -13.381564 -32.752030 21.794706
LeftArm 3.658520 -0.978382 -5.183996
LeftForeArm 6.709404 -0.000000 -2.516989
LeftHand -8.033581 -0.000000 -8.133360
LeftHandThumb1 -26.253704 0.000000 33.147579
RightShoulder -13.646330 -6.707537 -12.146003
RightArm 2.125903 42.290173 6.511744
RightForeArm -36.482658 0.000000 5.765761
RightHand -8.448641 -0.000000 10.353030
RightHandThumb1 -24.326973 -0.000000 -32.862282
LeftUpLeg 6.382660 6.134530 2.543239
LeftLeg -5.982664 -0.000000 0.000000
LeftFoot -22.326171 27.933529 -11.932393
LeftToeBase 26.061674 -0.000000 -0.000000
RightUpLeg 5.753344 -6.889225 0.765534
RightLeg -3.008499 -0.000000 0.000000
RightFoot -23.806388 -25.083323 16.327885
RightToeBase 22.637648 -0.000000 -0.000000
70
root 19.946715 35.334522 -24.391060 -176.036906 -5.294303 -178.710214
Spine -13.544152 0.578158 0.307059
Head 9.173794 -3.864784 -1.011273
LeftShoulder -13.388798 -32.744068 21.767960
LeftArm 3.695560 -0.962690 -5.180786
LeftForeArm 6.720831 0.000000 -2.509038
LeftHand -8.005549 -0.000000 -8.036902
LeftHandThumb1 -26.253704 0.000000 33.147579
RightShoulder -13.677161 -6.751162 -12.102184
RightArm 2.220241 42.332688 6.534493
RightForeArm -36.465460 0.000000 5.724104
RightHand -8.448363 -0.000000 10.234351
RightHandThumb1 -24.326973 -0.000000 -32.862282
LeftUpLeg 6.384732 6.119813 2.531122
LeftLeg -5.985104 -0.000000 0.000000
LeftFoot -22.327433 27.957343 -11.944564
LeftToeBase 26.063800 -0.000000 -0.000000
RightUpLeg 5.750355 -6.868901 0.756033
RightLeg -3.007199 -0.000000 0.000000
RightFoot -23.801371 -25.086091 16.333972
RightToeBase 22.608463 -0.000000 -0.000000
71
root 19.945549 35.334637 -24.388747 -176.039705 -5.281617 -178.707538
Spine -13.541755 0.600383 0.296975
Head 9.251004 -3.875046 -1.020682
LeftShoulder -13.372226 -32.742518 21.738126
LeftArm 3.699224 -0.913421 -5.167603
LeftForeArm 6.731157 -0.000000 -2.485721
LeftHand -7.960586 -0.000000 -7.982421
LeftHandThumb1 -26.253704 0.000000 33.147579
RightShoulder -13.688680 -6.767139 -12.101056
RightArm 2.258512 42.341548 6.578342
RightForeArm -36.423723 -0.000000 5.750746
RightHand -8.545477 -0.000000 10.214795
RightHandThumb1 -24.326973 -0.000000 -32.862282
LeftUpLeg 6.372666 6.139277 2.530476
LeftLeg -5.960148 -0.000000 0.000000
LeftFoot -22.340640 27.950945 -11.931046
LeftToeBase 26.066305 -0.000000 -0.000000
RightUpLeg 5.750802 -6.859938 0.755037
RightLeg -3.013429 -0.000000 0.000000
RightFoot -23.793577 -25.092282 16.317306
RightToeBase 22.645770 -0.000000 -0.000000
